<?xml version="1.0" standalone="no"?>
<!DOCTYPE svg PUBLIC "-//W3C//DTD SVG 20010904//EN"
 "http://www.w3.org/TR/2001/REC-SVG-20010904/DTD/svg10.dtd">
<svg version="1.0" xmlns="http://www.w3.org/2000/svg"
 width="512.000000pt" height="512.000000pt" viewBox="0 0 512.000000 512.000000"
 preserveAspectRatio="xMidYMid meet">

<g transform="translate(0.000000,512.000000) scale(0.100000,-0.100000)"
fill="#000000" stroke="none">
<path d="M705 4971 c-48 -22 -79 -54 -100 -103 -13 -33 -15 -166 -15 -1127 l0
-1089 -52 -17 c-332 -108 -557 -438 -534 -785 7 -118 26 -192 77 -297 89 -186
258 -336 454 -403 l50 -17 5 -434 c4 -379 7 -438 22 -464 71 -130 248 -139
333 -17 l30 44 3 438 3 438 35 6 c70 14 213 97 290 169 123 115 186 214 229
363 35 120 41 226 21 343 -51 291 -251 526 -523 615 l-53 17 -2 1104 -3 1103
-30 44 c-56 80 -155 108 -240 69z m222 -2713 c60 -22 128 -72 165 -119 156
-206 90 -488 -142 -602 -60 -30 -72 -32 -165 -32 -91 0 -106 3 -165 31 -218
103 -295 367 -167 567 102 158 294 222 474 155z"/>
<path d="M2474 4965 c-28 -14 -59 -40 -74 -62 l-25 -37 -5 -439 -5 -439 -69
-24 c-224 -78 -407 -268 -482 -499 -36 -109 -44 -287 -20 -401 23 -104 101
-263 167 -339 95 -110 214 -192 341 -237 l68 -23 2 -1106 3 -1105 25 -37 c30
-44 109 -87 160 -87 51 0 130 43 160 87 l25 37 3 1105 2 1106 68 23 c127 45
246 127 341 237 66 76 144 235 167 339 24 114 16 292 -20 401 -75 231 -258
421 -482 499 l-69 24 -5 439 -5 439 -25 37 c-30 44 -109 87 -160 87 -20 0 -58
-11 -86 -25z m202 -1362 c109 -36 199 -116 246 -219 19 -41 23 -66 23 -154 0
-97 -2 -110 -31 -170 -55 -115 -150 -190 -277 -216 -176 -37 -353 51 -431 216
-29 60 -31 73 -31 170 0 88 4 113 23 154 46 101 136 182 242 219 60 21 174 21
236 0z"/>
<path d="M4250 4968 c-26 -14 -57 -41 -75 -66 l-30 -44 -3 -1103 -2 -1104 -53
-17 c-272 -89 -472 -324 -523 -615 -20 -117 -14 -223 21 -343 43 -149 106
-248 229 -363 77 -72 220 -155 290 -169 l35 -6 3 -438 3 -438 30 -44 c85 -122
262 -113 333 17 15 26 18 85 22 464 l5 434 50 17 c243 83 444 298 509 545 67
252 -7 542 -187 733 -87 91 -209 169 -325 207 l-52 17 0 1092 c0 1039 -1 1093
-19 1131 -47 102 -162 143 -261 93z m143 -2688 c117 -19 212 -80 274 -177 128
-200 51 -464 -167 -567 -59 -28 -74 -31 -165 -31 -93 0 -105 2 -165 32 -250
123 -304 440 -109 635 54 54 133 95 207 108 66 11 61 11 125 0z"/>
</g>
</svg>
